<svg width="12" height="12" viewBox="0 0 12 12" fill="none" xmlns="http://www.w3.org/2000/svg">
<path d="M6 1.5C2.7672 1.5 0 4.93029 0 6C0 7.11986 2.1276 10.5 6 10.5C9.8724 10.5 12 7.11986 12 6C12 4.93029 9.2328 1.5 6 1.5ZM6 7.92857C5.64399 7.92857 5.29598 7.81546 4.99997 7.60355C4.70397 7.39163 4.47325 7.09043 4.33702 6.73803C4.20078 6.38563 4.16513 5.99786 4.23459 5.62375C4.30404 5.24965 4.47547 4.90601 4.72721 4.63629C4.97894 4.36658 5.29967 4.1829 5.64884 4.10849C5.998 4.03407 6.35992 4.07226 6.68883 4.21823C7.01774 4.3642 7.29886 4.61139 7.49665 4.92854C7.69443 5.24569 7.8 5.61856 7.8 6C7.8 6.51149 7.61036 7.00203 7.27279 7.36371C6.93523 7.72538 6.47739 7.92857 6 7.92857Z" fill="white"/>
</svg>
