<svg width="12" height="12" viewBox="0 0 12 12" fill="none" xmlns="http://www.w3.org/2000/svg">
<g clip-path="url(#clip0_15612_18)">
<path d="M7.08889 6.00001L11.1649 1.92399C11.2385 1.85295 11.2971 1.76798 11.3375 1.67403C11.3778 1.58007 11.3991 1.47902 11.4 1.37677C11.4009 1.27452 11.3814 1.17312 11.3427 1.07848C11.3039 0.983841 11.2468 0.897861 11.1745 0.825556C11.1021 0.753252 11.0162 0.696071 10.9215 0.657351C10.8269 0.618631 10.7255 0.599147 10.6232 0.600035C10.521 0.600924 10.4199 0.622167 10.326 0.662526C10.232 0.702885 10.1471 0.761551 10.076 0.835102L6.00001 4.91112L1.92399 0.835102C1.77875 0.694826 1.58423 0.617206 1.38232 0.618961C1.18041 0.620715 0.987261 0.701704 0.844482 0.844482C0.701704 0.987261 0.620715 1.18041 0.618961 1.38232C0.617206 1.58423 0.694826 1.77875 0.835102 1.92399L4.91112 6.00001L0.835102 10.076C0.761551 10.1471 0.702885 10.232 0.662526 10.326C0.622167 10.4199 0.600924 10.521 0.600035 10.6232C0.599147 10.7255 0.618631 10.8269 0.657351 10.9215C0.696071 11.0162 0.753252 11.1021 0.825556 11.1745C0.897861 11.2468 0.983841 11.3039 1.07848 11.3427C1.17312 11.3814 1.27452 11.4009 1.37677 11.4C1.47902 11.3991 1.58007 11.3778 1.67403 11.3375C1.76798 11.2971 1.85295 11.2385 1.92399 11.1649L6.00001 7.08889L10.076 11.1649C10.2213 11.3052 10.4158 11.3828 10.6177 11.3811C10.8196 11.3793 11.0127 11.2983 11.1555 11.1555C11.2983 11.0127 11.3793 10.8196 11.3811 10.6177C11.3828 10.4158 11.3052 10.2213 11.1649 10.076L7.08889 6.00001Z" fill="#9E1C15"/>
</g>
<defs>
<clipPath id="clip0_15612_18">
<rect width="12" height="12" fill="white"/>
</clipPath>
</defs>
</svg>
